<svg id="svg" version="1.1" width="500" height="500" xmlns="http://www.w3.org/2000/svg" xmlns:xlink="http://www.w3.org/1999/xlink" style="display: block;"><g id="svgg"><path id="path0" d="M34.264 28.000 L 32.128 30.000 31.768 190.158 L 31.407 350.316 34.025 351.558 C 38.037 353.462,362.579 353.452,366.573 351.547 L 369.200 350.295 368.987 190.177 L 368.773 30.059 366.587 27.767 L 364.400 25.475 200.400 25.737 L 36.400 26.000 34.264 28.000 M213.160 89.103 C 218.398 94.657,221.348 111.084,217.943 115.737 C 214.328 120.676,213.509 120.797,183.898 120.799 C 161.670 120.800,156.833 120.997,156.056 121.933 C 154.667 123.606,155.204 159.527,156.639 160.962 C 157.425 161.747,163.464 162.097,181.439 162.400 C 212.739 162.927,213.605 163.319,213.596 176.960 C 213.590 185.297,212.663 188.665,209.554 191.645 L 207.097 194.000 182.190 194.233 C 166.395 194.381,156.915 194.773,156.276 195.303 C 155.506 195.942,155.214 203.497,155.035 227.469 C 154.732 267.864,155.428 266.386,136.718 266.396 C 127.424 266.400,124.908 265.447,121.274 260.542 C 118.688 257.052,118.225 96.381,120.789 92.193 C 124.462 86.193,122.680 86.406,169.106 86.403 L 210.611 86.400 213.160 89.103 M268.266 89.041 C 273.937 93.371,273.590 88.568,273.695 164.160 C 273.801 240.695,273.574 236.795,278.008 238.234 C 288.054 241.496,288.568 262.111,278.720 266.784 C 273.170 269.418,255.902 268.090,252.353 264.756 C 251.312 263.778,249.665 262.578,248.693 262.089 C 246.956 261.215,243.003 256.324,240.216 251.600 C 238.887 249.348,238.800 244.359,238.800 170.653 L 238.800 92.105 241.109 89.695 C 243.811 86.874,245.491 86.555,256.865 86.695 C 264.827 86.794,265.505 86.933,268.266 89.041 M3.608 378.334 C 4.261 382.695,4.859 383.172,9.702 383.188 C 12.159 383.196,13.773 383.645,14.502 384.524 C 17.495 388.133,10.384 388.000,200.000 388.000 C 389.616 388.000,382.505 388.133,385.498 384.524 C 386.227 383.645,387.841 383.196,390.298 383.188 C 395.141 383.172,395.739 382.695,396.392 378.334 L 396.941 374.669 392.671 375.276 C 387.090 376.069,12.910 376.069,7.329 375.276 L 3.059 374.669 3.608 378.334 " stroke="none" fill="#1a0500" fill-rule="evenodd"></path><path id="path1" d="M126.800 21.592 C 74.880 21.816,31.795 22.299,31.056 22.664 C 27.955 24.196,27.959 24.042,27.442 189.626 C 26.877 370.557,26.365 354.328,32.687 355.917 C 37.285 357.073,363.650 357.660,367.505 356.519 C 373.953 354.611,373.431 370.499,373.014 189.013 C 372.607 11.554,372.944 22.832,368.000 21.499 C 365.829 20.913,275.681 20.948,126.800 21.592 M366.587 27.767 L 368.773 30.059 368.987 190.177 L 369.200 350.295 366.573 351.547 C 362.579 353.452,38.037 353.462,34.025 351.558 L 31.407 350.316 31.768 190.158 L 32.128 30.000 34.264 28.000 L 36.400 26.000 200.400 25.737 L 364.400 25.475 366.587 27.767 M124.993 87.996 C 118.720 91.820,119.168 84.731,119.397 176.542 C 119.599 258.071,119.604 258.289,121.274 260.542 C 124.908 265.447,127.424 266.400,136.718 266.396 C 155.428 266.386,154.732 267.864,155.035 227.469 C 155.214 203.497,155.506 195.942,156.276 195.303 C 156.915 194.773,166.395 194.381,182.190 194.233 L 207.097 194.000 209.554 191.645 C 212.663 188.665,213.590 185.297,213.596 176.960 C 213.605 163.319,212.739 162.927,181.439 162.400 C 163.464 162.097,157.425 161.747,156.639 160.962 C 155.204 159.527,154.667 123.606,156.056 121.933 C 156.833 120.997,161.670 120.800,183.898 120.799 C 213.509 120.797,214.328 120.676,217.943 115.737 C 221.348 111.084,218.398 94.657,213.160 89.103 L 210.611 86.400 169.106 86.403 C 129.101 86.406,127.506 86.463,124.993 87.996 M245.909 86.938 C 244.518 87.132,242.398 88.349,241.109 89.695 L 238.800 92.105 238.800 170.653 C 238.800 244.359,238.887 249.348,240.216 251.600 C 243.003 256.324,246.956 261.215,248.693 262.089 C 249.665 262.578,251.312 263.778,252.353 264.756 C 255.902 268.090,273.170 269.418,278.720 266.784 C 288.568 262.111,288.054 241.496,278.008 238.234 C 273.574 236.795,273.801 240.695,273.695 164.160 C 273.590 88.568,273.937 93.371,268.266 89.041 C 265.302 86.779,254.405 85.753,245.909 86.938 M210.216 92.441 C 213.947 95.055,216.377 108.072,213.856 111.947 C 211.215 116.007,211.662 115.948,183.362 115.975 L 156.724 116.000 154.742 118.138 C 151.918 121.186,151.866 121.682,152.147 143.138 L 152.400 162.541 154.645 164.471 L 156.889 166.400 180.881 166.400 L 204.873 166.400 206.836 168.364 C 210.452 171.979,209.578 183.970,205.361 188.600 C 203.731 190.389,203.573 190.400,180.199 190.400 L 156.677 190.400 154.472 192.605 C 151.814 195.263,151.208 203.475,151.188 237.126 C 151.181 248.167,150.898 257.636,150.560 258.169 C 146.992 263.782,125.635 262.445,124.450 256.534 C 124.258 255.580,123.894 219.111,123.641 175.492 L 123.180 96.184 126.018 93.692 L 128.856 91.200 168.650 91.200 C 203.312 91.200,208.672 91.360,210.216 92.441 M266.078 93.776 L 269.013 96.352 268.569 162.776 C 268.045 241.352,267.580 236.798,276.642 241.730 C 282.829 245.097,282.031 260.755,275.548 263.220 C 270.628 265.090,261.915 264.172,255.125 261.068 L 248.711 258.137 245.887 252.104 C 241.638 243.028,241.610 242.468,241.605 166.324 C 241.600 99.818,241.686 95.373,243.000 94.228 C 247.634 90.192,261.683 89.917,266.078 93.776 M3.506 368.355 C 3.241 369.047,3.254 370.838,3.535 372.336 L 4.046 375.060 10.623 375.576 C 19.803 376.295,394.930 375.737,395.664 375.003 C 397.090 373.577,396.443 367.658,394.825 367.332 C 393.507 367.067,393.413 367.210,394.246 368.214 C 395.052 369.185,395.009 369.502,394.020 369.881 C 393.349 370.139,392.800 369.957,392.800 369.477 C 392.800 368.855,392.491 368.861,391.726 369.495 C 391.136 369.985,390.416 370.149,390.126 369.860 C 389.837 369.570,389.600 369.919,389.600 370.636 C 389.600 373.453,385.434 373.517,199.098 373.586 C 8.774 373.657,10.400 373.682,10.400 370.624 C 10.400 370.009,10.065 369.713,9.655 369.966 C 9.246 370.219,8.680 370.052,8.397 369.596 C 8.078 369.079,7.378 369.315,6.542 370.221 C 5.804 371.021,5.514 371.208,5.898 370.638 C 6.341 369.979,6.251 369.600,5.651 369.600 C 5.131 369.600,4.913 369.265,5.166 368.855 C 5.419 368.446,5.258 367.883,4.807 367.605 C 4.357 367.326,3.772 367.664,3.506 368.355 " stroke="none" fill="#7d1c04" fill-rule="evenodd"></path><path id="path2" d="M391.631 4.750 C 391.328 5.239,391.378 5.541,391.741 5.420 C 392.103 5.299,392.400 5.560,392.400 6.000 C 392.400 6.440,391.875 6.801,391.232 6.802 C 389.923 6.805,389.026 9.812,388.011 17.600 C 387.491 21.595,385.862 326.374,386.196 357.249 C 386.301 366.902,397.534 365.863,286.000 366.511 C 55.426 367.849,12.966 367.474,12.771 364.100 C 12.418 357.985,12.102 304.351,11.669 177.200 C 11.101 10.172,11.112 10.827,8.728 11.451 C 7.888 11.670,7.200 11.556,7.200 11.196 C 7.200 10.836,6.570 10.634,5.800 10.747 C 4.358 10.959,3.090 363.986,4.520 367.200 C 4.814 367.860,4.997 368.670,4.927 369.000 C 4.857 369.330,5.204 369.600,5.698 369.600 C 6.259 369.600,6.334 369.989,5.898 370.638 C 5.514 371.208,5.804 371.021,6.542 370.221 C 7.378 369.315,8.078 369.079,8.397 369.596 C 8.680 370.052,9.246 370.219,9.655 369.966 C 10.065 369.713,10.400 370.009,10.400 370.624 C 10.400 373.682,8.774 373.657,199.098 373.586 C 385.434 373.517,389.600 373.453,389.600 370.636 C 389.600 369.919,389.837 369.570,390.126 369.860 C 390.416 370.149,391.136 369.985,391.726 369.495 C 392.491 368.861,392.800 368.855,392.800 369.477 C 392.800 369.957,393.349 370.139,394.020 369.881 C 394.962 369.520,395.031 369.160,394.322 368.307 C 393.605 367.442,393.688 367.200,394.702 367.200 C 396.959 367.200,396.667 11.225,394.409 10.634 C 393.534 10.405,393.039 9.860,393.309 9.423 C 393.615 8.928,393.121 8.844,392.000 9.200 C 390.774 9.589,390.374 9.489,390.747 8.886 C 391.048 8.399,391.723 7.989,392.247 7.975 C 392.771 7.961,393.903 6.971,394.763 5.775 C 395.708 4.459,395.843 3.987,395.104 4.581 C 394.241 5.274,393.632 5.312,393.031 4.711 C 392.430 4.110,392.019 4.122,391.631 4.750 M394.475 7.509 C 393.907 8.194,393.827 8.846,394.277 9.124 C 394.693 9.381,395.259 9.001,395.535 8.281 C 396.213 6.513,395.645 6.099,394.475 7.509 M122.000 18.386 C 71.400 18.614,29.452 19.077,28.783 19.415 C 25.093 21.281,25.225 18.328,24.800 108.800 C 23.647 354.342,23.742 359.253,29.662 360.836 C 30.736 361.124,108.191 361.503,201.784 361.679 L 371.953 362.000 373.776 360.178 L 375.600 358.356 375.600 190.000 L 375.600 21.644 373.778 19.822 L 371.956 18.000 292.978 17.986 C 249.540 17.978,172.600 18.158,122.000 18.386 M368.000 21.499 C 372.944 22.832,372.607 11.554,373.014 189.013 C 373.431 370.499,373.953 354.611,367.505 356.519 C 363.650 357.660,37.285 357.073,32.687 355.917 C 26.365 354.328,26.877 370.557,27.442 189.626 C 27.959 24.042,27.955 24.196,31.056 22.664 C 33.224 21.593,364.104 20.448,368.000 21.499 M126.018 93.692 L 123.180 96.184 123.641 175.492 C 123.894 219.111,124.258 255.580,124.450 256.534 C 125.635 262.445,146.992 263.782,150.560 258.169 C 150.898 257.636,151.181 248.167,151.188 237.126 C 151.208 203.475,151.814 195.263,154.472 192.605 L 156.677 190.400 180.199 190.400 C 203.573 190.400,203.731 190.389,205.361 188.600 C 209.578 183.970,210.452 171.979,206.836 168.364 L 204.873 166.400 180.881 166.400 L 156.889 166.400 154.645 164.471 L 152.400 162.541 152.147 143.138 C 151.866 121.682,151.918 121.186,154.742 118.138 L 156.724 116.000 183.362 115.975 C 211.662 115.948,211.215 116.007,213.856 111.947 C 215.019 110.159,215.084 109.030,214.355 103.217 C 212.727 90.235,216.396 91.200,168.650 91.200 L 128.856 91.200 126.018 93.692 M246.800 92.168 C 241.140 94.151,241.599 87.595,241.605 166.324 C 241.610 242.468,241.638 243.028,245.887 252.104 L 248.711 258.137 255.125 261.068 C 261.915 264.172,270.628 265.090,275.548 263.220 C 282.031 260.755,282.829 245.097,276.642 241.730 C 267.580 236.798,268.045 241.352,268.569 162.776 L 269.013 96.352 266.078 93.776 C 262.890 90.977,252.638 90.121,246.800 92.168 M209.878 95.956 C 211.043 97.118,211.867 110.217,210.840 111.242 C 210.392 111.689,199.297 112.000,183.814 112.000 C 153.992 112.000,153.526 112.079,149.849 117.739 L 147.600 121.200 147.600 142.261 L 147.600 163.323 150.588 166.061 L 153.577 168.800 171.388 168.890 C 181.185 168.939,192.620 169.209,196.800 169.490 L 204.400 170.000 204.634 176.678 C 204.970 186.296,206.954 185.595,179.302 185.628 C 153.750 185.659,153.827 185.647,150.121 190.089 C 146.515 194.412,146.400 195.508,146.400 225.705 C 146.400 260.279,147.203 257.600,136.836 257.600 L 128.927 257.600 128.486 252.600 C 127.227 238.348,127.437 96.906,128.719 95.563 C 130.321 93.885,208.181 94.263,209.878 95.956 M264.400 166.835 C 264.400 243.364,264.350 242.400,268.300 242.400 C 268.884 242.400,270.586 243.482,272.081 244.803 C 273.577 246.125,275.449 247.764,276.242 248.446 C 278.798 250.641,277.831 256.908,274.800 257.795 C 269.109 259.461,255.782 257.828,253.600 255.197 C 252.500 253.871,251.179 252.789,250.664 252.793 C 247.955 252.814,247.312 238.571,246.777 166.679 C 246.278 99.547,246.313 96.926,247.729 96.089 C 248.581 95.585,252.400 95.299,256.800 95.409 L 264.400 95.600 264.400 166.835 " stroke="none" fill="#c52c0f" fill-rule="evenodd"></path><path id="path3" d="M3.636 3.636 C 3.330 5.677,3.244 7.510,3.444 7.710 C 3.644 7.910,4.058 6.404,4.364 4.364 C 4.670 2.323,4.756 0.490,4.556 0.290 C 4.356 0.090,3.942 1.596,3.636 3.636 M395.389 1.600 C 395.389 2.700,395.664 4.680,396.000 6.000 C 396.545 8.141,396.611 8.184,396.611 6.400 C 396.611 5.300,396.336 3.320,396.000 2.000 C 395.455 -0.141,395.389 -0.184,395.389 1.600 M3.593 188.400 C 3.593 287.400,3.686 327.781,3.800 278.136 C 3.914 228.491,3.914 147.491,3.800 98.136 C 3.686 48.781,3.593 89.400,3.593 188.400 M396.393 188.400 C 396.393 287.400,396.486 327.781,396.600 278.136 C 396.714 228.491,396.714 147.491,396.600 98.136 C 396.486 48.781,396.393 89.400,396.393 188.400 " stroke="none" fill="#ff0000" fill-rule="evenodd"></path><path id="path4" d="M4.945 2.744 C 5.121 4.253,4.981 5.312,4.633 5.097 C 3.642 4.484,3.892 5.972,4.960 7.040 C 5.707 7.787,5.707 8.000,4.960 8.000 C 4.432 8.000,4.000 8.699,4.000 9.554 C 4.000 10.678,4.443 11.023,5.600 10.800 C 6.480 10.631,7.200 10.797,7.200 11.171 C 7.200 11.545,7.888 11.670,8.728 11.451 C 11.112 10.827,11.101 10.172,11.669 177.200 C 12.102 304.351,12.418 357.985,12.771 364.100 C 12.966 367.474,55.426 367.849,286.000 366.511 C 397.534 365.863,386.301 366.902,386.196 357.249 C 385.862 326.374,387.491 21.595,388.011 17.600 C 389.026 9.812,389.923 6.805,391.232 6.802 C 391.875 6.801,392.454 6.440,392.520 6.000 C 392.586 5.560,392.289 5.299,391.861 5.420 C 391.432 5.541,391.320 5.253,391.612 4.781 C 391.980 4.185,392.449 4.176,393.145 4.754 C 393.696 5.212,394.431 5.319,394.779 4.993 C 395.126 4.667,394.916 5.210,394.313 6.200 C 393.709 7.190,392.783 8.000,392.255 8.000 C 391.727 8.000,391.048 8.399,390.747 8.886 C 390.374 9.489,390.774 9.589,392.000 9.200 C 393.121 8.844,393.615 8.928,393.309 9.423 C 393.039 9.860,393.534 10.405,394.409 10.634 C 395.645 10.957,395.986 10.665,395.937 9.325 C 395.902 8.376,395.691 8.052,395.469 8.605 C 395.246 9.158,394.711 9.392,394.280 9.126 C 393.804 8.832,393.945 8.122,394.639 7.321 C 395.375 6.471,395.648 4.930,395.404 3.000 L 395.025 -0.000 199.825 -0.000 L 4.625 -0.000 4.945 2.744 M373.778 19.822 L 375.600 21.644 375.600 190.000 L 375.600 358.356 373.776 360.178 L 371.953 362.000 201.784 361.679 C 108.191 361.503,30.736 361.124,29.662 360.836 C 23.742 359.253,23.647 354.342,24.800 108.800 C 25.225 18.328,25.093 21.281,28.783 19.415 C 30.138 18.730,171.627 17.964,292.978 17.986 L 371.956 18.000 373.778 19.822 M128.719 95.563 C 127.437 96.906,127.227 238.348,128.486 252.600 L 128.927 257.600 136.836 257.600 C 147.203 257.600,146.400 260.279,146.400 225.705 C 146.400 195.508,146.515 194.412,150.121 190.089 C 153.827 185.647,153.750 185.659,179.302 185.628 C 206.954 185.595,204.970 186.296,204.634 176.678 L 204.400 170.000 196.800 169.490 C 192.620 169.209,181.185 168.939,171.388 168.890 L 153.577 168.800 150.588 166.061 L 147.600 163.323 147.600 142.261 L 147.600 121.200 149.849 117.739 C 153.526 112.079,153.992 112.000,183.814 112.000 C 199.297 112.000,210.392 111.689,210.840 111.242 C 211.867 110.217,211.043 97.118,209.878 95.956 C 208.181 94.263,130.321 93.885,128.719 95.563 M247.729 96.089 C 246.313 96.926,246.278 99.547,246.777 166.679 C 247.312 238.571,247.955 252.814,250.664 252.793 C 251.179 252.789,252.500 253.871,253.600 255.197 C 255.782 257.828,269.109 259.461,274.800 257.795 C 277.831 256.908,278.798 250.641,276.242 248.446 C 275.449 247.764,273.577 246.125,272.081 244.803 C 270.586 243.482,268.884 242.400,268.300 242.400 C 264.350 242.400,264.400 243.364,264.400 166.835 L 264.400 95.600 256.800 95.409 C 252.400 95.299,248.581 95.585,247.729 96.089 " stroke="none" fill="#ff441c" fill-rule="evenodd"></path></g></svg>